<?xml version="1.0" encoding="UTF-8"?>
<svg xmlns="http://www.w3.org/2000/svg" version="1.1" viewBox="0 0 1152.2 395.8">
  <defs>
    <style>
      .cls-1 {
        fill: #f1f1f1;
      }

      .cls-2 {
        fill: #fff;
      }

      .cls-3 {
        fill: #e60023;
      }
    </style>
  </defs>
  <!-- Generator: Adobe Illustrator 28.7.1, SVG Export Plug-In . SVG Version: 1.2.0 Build 142)  -->
  <g>
    <g id="Template">
      <rect class="cls-1" y=".8" width="1152.2" height="395.1" rx="197.5" ry="197.5"/>
      <g>
        <path class="cls-3" d="M883.3,281c-1.1-10.1-.3-19.8,1.9-29.1l8.9-38.4c-1.4-4.7-2.6-10-2.6-15.3,0-12.5,6-21.4,15.5-21.4s11.3,4.6,11.3,13.3-.6,5.9-1.7,9.5l-3.9,12.8c-.8,2.4-1.1,4.8-1.1,6.8,0,8.9,6.8,13.9,15.5,13.9,15.5,0,26.5-16,26.5-36.8s-15.1-37.9-37.5-37.9-40.7,16.2-40.7,38.8,2.8,17.6,8.2,23.4c-1.8,3-3.7,3.6-6.6,3.6-8.9,0-17.3-12.6-17.3-29.7,0-29.6,23.7-53.2,56.9-53.2s56.8,24.4,56.8,54.4-21.4,52.9-44.4,52.9-17.1-3.9-22.7-10.9l-4.6,18.5c-2.4,9.6-6.1,18.6-12,27.2,8.3,2.6,16.6,4,26.5,4,49.2,0,89-39.8,89-89s-39.8-89-89-89-89,39.8-89,89c.2,37.2,23.1,69.3,56.1,82.6"/>
        <g>
          <path d="M144.6,141h67.3v19.4h-46.7v27.8h36.2v19.1h-36.2v41.4h-20.6v-107.7Z"/>
          <path d="M211.6,210c0-23.3,16.9-40.6,41-40.6s41,17.2,41,40.6-16.9,40.7-41,40.7-41-17.4-41-40.7ZM252.7,231.5c11.1,0,20.4-7.5,20.4-21.5s-9.3-21.5-20.4-21.5-20.3,7.5-20.3,21.5,9.1,21.5,20.3,21.5Z"/>
          <path d="M305.8,136.4h19.8v112.2h-19.8v-112.2Z"/>
          <path d="M341.3,136.4h19.8v112.2h-19.8v-112.2Z"/>
          <path d="M373.1,210c0-23.3,16.9-40.6,41-40.6s41,17.2,41,40.6-16.9,40.7-41,40.7-41-17.4-41-40.7ZM414.1,231.5c11.1,0,20.4-7.5,20.4-21.5s-9.3-21.5-20.4-21.5-20.3,7.5-20.3,21.5,9.2,21.5,20.3,21.5Z"/>
          <path d="M457.4,171.5h21.1l13.9,59.1,15-59.1h23l15,59.1,13.9-59.1h21.1l-23.8,77.1h-22.3l-15.3-57.8-15.4,57.8h-22.4l-23.8-77.1Z"/>
          <path d="M612,210c0-23.3,16.9-40.6,41-40.6s41,17.2,41,40.6-16.9,40.7-41,40.7-41-17.4-41-40.7ZM653.1,231.5c11.1,0,20.4-7.5,20.4-21.5s-9.3-21.5-20.4-21.5-20.3,7.5-20.3,21.5,9.1,21.5,20.3,21.5Z"/>
          <path d="M706.2,171.5h18.5v10.7h.6c4-7.6,12.5-12.8,24.4-12.8,17.9,0,29.6,10.7,29.6,29v50.2h-19.8v-42.4c0-11-4.7-17.7-16-17.7s-17.4,6.7-17.4,20.1v40h-19.8v-77.1h0Z"/>
        </g>
      </g>
      <g>
        <circle class="cls-2" cx="916.2" cy="198.4" r="89"/>
        <path class="cls-3" d="M883.2,281c-1.1-10.1-.3-19.8,1.9-29.1l8.9-38.4c-1.4-4.7-2.6-10-2.6-15.3,0-12.5,6-21.4,15.5-21.4s11.3,4.6,11.3,13.3-.6,5.9-1.7,9.5l-3.9,12.8c-.8,2.4-1.1,4.8-1.1,6.8,0,8.9,6.8,13.9,15.5,13.9,15.5,0,26.5-16,26.5-36.8s-15.1-37.9-37.5-37.9-40.7,16.2-40.7,38.8,2.8,17.6,8.2,23.4c-1.8,3-3.7,3.6-6.6,3.6-8.9,0-17.4-12.6-17.4-29.7,0-29.6,23.7-53.2,56.9-53.2s56.8,24.4,56.8,54.4-21.4,52.9-44.4,52.9-17.1-3.9-22.7-10.9l-4.6,18.5c-2.4,9.6-6.1,18.6-12,27.2,8.3,2.6,16.6,4,26.5,4,49.2,0,89-39.8,89-89s-39.8-89-89-89-89,39.8-89,89,22.9,69.4,55.9,82.6"/>
      </g>
    </g>
  </g>
</svg>